<svg width="38" height="57" viewBox="0 0 38 57" fill="none" xmlns="http://www.w3.org/2000/svg">
<path d="M14 37.5L16 56.5L4 48.5V42.5L0 39.5L2.5 18L19 12V39.5L18 39L17.5 32.5L7 26.5L6.5 33L14 37.5Z" fill="#0C0707"/>
<path d="M24 37.5L22 56.5L34 48.5V42.5L38 39.5L35.5 18L19 12V39.5L20 39L20.5 32.5L31 26.5L31.5 33L24 37.5Z" fill="#0C0707"/>
<path d="M19 11L5.5 16L9 11L19 6V11Z" fill="#FF5F3F"/>
<path d="M19 11L32.5 16L29 11L19 6V11Z" fill="#FF5F3F"/>
<path d="M19 5L16 6.5L16.5309 4L19 0V5Z" fill="black"/>
<path d="M19 5L22 6.5L21.4691 4L19 0V5Z" fill="black"/>
</svg>
